<svg xmlns="http://www.w3.org/2000/svg" xmlns:xlink="http://www.w3.org/1999/xlink" preserveAspectRatio="xMidYMid" width="34" height="34" viewBox="0 0 34 34">
  <defs>
    <style>

      .cls-3 {
        fill: #000000;
        stroke: #000000;
        stroke-width: 3px;
      }

      .cls-4 {
        fill: #ffffff;
        stroke: #000000;
        stroke-width: 3px;
      }

      .cls-5 {
        stroke: #000000;
        stroke-width: 3px;
        fill: none;
      }

      .cls-6 {
        fill: #ffffff;
      }
    </style>
  </defs>
  <g id="instagramsvg">
    <rect id="rect-1" class="cls-3" x="2" y="3" width="29" height="11"/>
    <circle id="circle-1" class="cls-4" cx="17" cy="18" r="9"/>
    <path d="M6.500,1.500 C6.500,1.500 27.500,1.500 27.500,1.500 C30.261,1.500 32.500,3.739 32.500,6.500 C32.500,6.500 32.500,27.500 32.500,27.500 C32.500,30.261 30.261,32.500 27.500,32.500 C27.500,32.500 6.500,32.500 6.500,32.500 C3.739,32.500 1.500,30.261 1.500,27.500 C1.500,27.500 1.500,6.500 1.500,6.500 C1.500,3.739 3.739,1.500 6.500,1.500 Z" id="path-1" class="cls-5" fill-rule="evenodd"/>
    <path d="M23.000,3.000 C23.000,3.000 27.000,3.000 27.000,3.000 C27.552,3.000 28.000,3.448 28.000,4.000 C28.000,4.000 28.000,8.000 28.000,8.000 C28.000,8.552 27.552,9.000 27.000,9.000 C27.000,9.000 23.000,9.000 23.000,9.000 C22.448,9.000 22.000,8.552 22.000,8.000 C22.000,8.000 22.000,4.000 22.000,4.000 C22.000,3.448 22.448,3.000 23.000,3.000 Z" id="path-2" class="cls-6" fill-rule="evenodd"/>
  </g>
</svg>
