<svg xmlns="http://www.w3.org/2000/svg" xmlns:xlink="http://www.w3.org/1999/xlink" preserveAspectRatio="xMidYMid" width="34" height="30" viewBox="0 0 34 30">
  <defs>
    <style>

      .cls-2 {
        fill: #000000;
      }
    </style>
  </defs>
  <path d="M33.990,3.557 C32.739,4.159 31.394,4.566 29.983,4.749 C31.423,3.812 32.530,2.329 33.050,0.562 C31.702,1.429 30.209,2.059 28.620,2.399 C27.348,0.928 25.535,0.009 23.528,0.009 C19.675,0.009 16.552,3.397 16.552,7.577 C16.552,8.169 16.613,8.747 16.732,9.301 C10.934,8.986 5.793,5.973 2.353,1.394 C1.752,2.512 1.408,3.812 1.408,5.199 C1.408,7.824 2.640,10.141 4.512,11.498 C3.368,11.459 2.293,11.118 1.352,10.552 C1.351,10.583 1.351,10.614 1.351,10.646 C1.351,14.314 3.756,17.372 6.947,18.068 C6.362,18.240 5.746,18.333 5.110,18.333 C4.660,18.333 4.223,18.285 3.797,18.198 C4.684,21.204 7.261,23.392 10.314,23.453 C7.926,25.483 4.918,26.692 1.649,26.692 C1.086,26.692 0.531,26.657 -0.014,26.587 C3.073,28.734 6.740,29.987 10.679,29.987 C23.512,29.987 30.529,18.455 30.529,8.454 C30.529,8.126 30.522,7.800 30.509,7.475 C31.872,6.408 33.055,5.075 33.990,3.557 Z" id="path-1" class="cls-2" fill-rule="evenodd"/>
</svg>
