<svg xmlns="http://www.w3.org/2000/svg" xmlns:xlink="http://www.w3.org/1999/xlink" preserveAspectRatio="xMidYMid" width="30" height="30" viewBox="0 0 30 30">
  <defs>
    <style>

      .cls-2 {
        fill: #000000;
      }
    </style>
  </defs>
  <path d="M28.357,30.012 C28.357,30.012 1.650,30.012 1.650,30.012 C0.734,30.012 -0.007,29.270 -0.007,28.356 C-0.007,28.356 -0.007,1.653 -0.007,1.653 C-0.007,0.737 0.734,-0.005 1.650,-0.005 C1.650,-0.005 28.357,-0.005 28.357,-0.005 C29.272,-0.005 30.014,0.737 30.014,1.653 C30.014,1.653 30.014,28.356 30.014,28.356 C30.014,29.270 29.272,30.012 28.357,30.012 ZM23.000,9.000 C23.000,9.000 25.000,9.000 25.000,9.000 C25.000,9.000 25.000,5.000 25.000,5.000 C24.584,4.945 23.657,5.000 22.000,5.000 C18.541,5.000 17.000,7.123 17.000,11.000 C17.000,11.000 17.000,14.000 17.000,14.000 C17.000,14.000 13.000,14.000 13.000,14.000 C13.000,14.000 13.000,18.000 13.000,18.000 C13.000,18.000 17.000,18.000 17.000,18.000 C17.000,18.000 17.000,30.000 17.000,30.000 C17.000,30.000 21.000,30.000 21.000,30.000 C21.000,30.000 21.000,18.000 21.000,18.000 C21.000,18.000 25.000,18.000 25.000,18.000 C25.000,18.000 25.193,13.858 25.193,13.858 C25.193,13.858 21.000,14.000 21.000,14.000 C21.000,14.000 21.000,11.000 21.000,11.000 C21.000,9.689 21.119,9.000 23.000,9.000 Z" id="path-1" class="cls-2" fill-rule="evenodd"/>
</svg>
