<?xml version="1.0" encoding="UTF-8" standalone="no"?>
<svg xmlns="http://www.w3.org/2000/svg" height="137" width="238" preserveAspectRatio="xMidYMid" xmlns:xlink="http://www.w3.org/1999/xlink" viewBox="0 0 238 137">
 <defs>
  <style>.cls-2 {
        fill: #000000;
      }</style>
 </defs>
 <path id="path-1" class="cls-2" fill-rule="evenodd" d="m224.24 92.157c-3.63 1.732-8.17 2.638-13.7 2.638-4.12 0-8.16-0.33-12.29-0.33-3.46 0-8.58 0.33-10.07 0.33v-0.988l3.97-0.331c2.14-0.165 2.8-0.905 2.97-2.307 0.16-1.814 0.49-8.244 0.49-18.381v-13.189c0-8.49 0-12.611-0.16-14.755-0.09-1.484-0.66-1.895-2.31-2.06l-4.46-0.413 0.17-0.906c1.73 0 6.51 0.248 9.98 0.248 3.63 0 7.59-0.248 12.54-0.33 9.24 0 13.53 1.319 16.99 3.544 6.36 3.874 9.66 11.375 9.66 21.431 0 10.716-3.47 20.853-13.78 25.799zm1.07-43.686c-3.22-3.792-7.67-5.769-15.1-5.769-6.68 0-7.01 0.658-7.17 1.895-0.17 1.154-0.42 4.699-0.42 15.991v12.529c0 13.188 0.09 16.65 0.33 18.546 0.17 1.319 1.49 1.895 6.27 1.895 9.08 0 13.37-2.72 16.09-6.594 2.8-3.956 4.87-10.633 4.87-20.277 0-8.902-1.98-14.836-4.87-18.216zm-72.92 47.396c-14.1 0-24.17-9.232-24.17-27.202 0-15.743 8.66-28.353 24.59-28.353h0.08c15.34 0 23.76 12.034 23.76 26.705 0 19.7-10.31 28.85-24.26 28.85zm11.8-47.807c-2.64-4.369-6.52-6.595-11.71-6.595h-0.09c-4.45 0-8.91 2.06-11.71 6.512-2.56 4.204-4.29 10.963-4.29 19.536 0 8.654 2.06 16.237 4.62 20.358 2.89 4.615 7.01 6.594 12.05 6.594 4.53 0 8.41-1.483 11.46-6.347 2.4-4.038 3.96-11.373 3.96-20.194 0-7.912-1.65-15.167-4.29-19.864zm-40.06-29.738h-10.18l-2.87 6.739h-2.95l11.02-25.057 10.73 25.057h-2.95l-2.8-6.739zm-5.05-12.08s-4.09 9.57-4.09 9.57h8.11l-4.02-9.57zm-31.377 89.625c-14.107 0-24.172-9.232-24.172-27.202 0-15.743 8.662-28.353 24.586-28.353h0.083c15.34 0 23.76 12.034 23.76 26.705 0 19.7-10.31 28.85-24.257 28.85zm11.798-47.807c-2.64-4.369-6.518-6.595-11.716-6.595h-0.082c-4.454 0-8.909 2.06-11.714 6.512-2.558 4.204-4.291 10.963-4.291 19.536 0 8.654 2.063 16.237 4.62 20.358 2.888 4.615 7.014 6.594 12.046 6.594 4.536 0 8.415-1.483 11.467-6.347 2.389-4.038 3.959-11.373 3.959-20.194 0-7.912-1.65-15.167-4.289-19.864zm-54.874 25.305c-0.412 4.203-0.247 6.923-0.247 9.891 0 4.78 0.165 6.511 0.494 8.407-1.813 0.577-6.021 1.978-8.167 2.555-2.887 0.824-6.681 1.649-10.807 1.649-9.983 0-16.169-2.638-20.542-8.243-3.629-4.534-5.363-11.457-5.363-18.959 0-11.126 4.538-20.111 12.376-24.727 4.291-2.555 8.744-3.626 14.683-3.626 7.92 0 13.118 3.131 15.016 5.192l1.733-4.698 0.824 0.412c-0.659 2.639-1.566 11.87-1.236 17.31h-1.156c-0.577-10.964-6.022-16.898-15.263-16.898-5.527 0-10.145 1.813-13.612 6.512-3.547 4.946-5.197 11.787-5.197 20.276 0 7.172 1.733 14.26 4.785 18.711 3.464 5.111 7.92 7.254 14.024 7.254 5.859 0 9.9-2.226 10.148-5.687 0.329-2.72 0.412-7.007 0.329-11.622-0.082-5.111-0.329-5.771-4.453-6.018l-3.961-0.329s-0.248-0.99-0.248-0.99c2.393 0 8.25 0.247 11.717 0.247 3.299 0 7.175-0.164 8.909-0.247 0 0 0.329 0.907 0.329 0.907-4.373 0.494-4.868 0.741-5.115 2.721zm42.075 41.405c1.756 1.5 2.187 3.62 2.187 5.12 0 3.37-2.117 6.71-7.569 6.71h-2.331v10.39h-2.657v-23.91h4.343c2.402 0 4.411 0.29 6.027 1.69zm-7.713 9.32h2.188c3.155 0 5.058-1.58 5.058-4.34 0-3.8-3.551-4.16-5.275-4.16h-1.971v8.5zm39.401 12.9h-2.94s-2.8-6.74-2.8-6.74h-10.19s-2.87 6.74-2.87 6.74h-2.941l11.011-25.05 10.73 25.05zm-14.89-9.25h8.11l-4.02-9.57s-4.09 9.57-4.09 9.57zm29.54 9.25h-2.66v-23.91h2.66v23.91zm24.44-22.58c1.4 0.93 2.62 2.76 2.62 5.31 0 3.65-2.4 6.34-6.03 6.59l7.61 10.68h-3.23l-7.29-10.47h-0.68v10.47h-2.65v-23.91h3.84c1.61 0 4.01 0.11 5.81 1.33zm-7 9.75h1.69c3.3 0 5.27-1.58 5.27-4.37 0-1.33-0.39-2.66-1.9-3.52-1.07-0.61-2.29-0.68-3.44-0.68h-1.62v8.57z"/>
</svg>
