<?xml version="1.0" encoding="UTF-8" standalone="no"?>
<svg xmlns="http://www.w3.org/2000/svg" height="43" width="92" preserveAspectRatio="xMidYMid" xmlns:xlink="http://www.w3.org/1999/xlink" viewBox="0 0 92 43">
 <defs>
  <style>.cls-2 {
        fill: #000000;
      }</style>
 </defs>
 <path id="path-1" class="cls-2" fill-rule="evenodd" d="m87.422 20.236h-1.408v6.472h-1.606v-14.888h2.624c1.453 0 2.668 0.179 3.643 1.049 1.063 0.938 1.324 2.254 1.324 3.192 0 2.098-1.281 4.175-4.577 4.175zm-0.216-6.853h-1.192v5.291h1.322c1.909 0 3.057-0.983 3.057-2.701 0-2.366-2.146-2.59-3.187-2.59zm-25.008 12.2c-0.31 3.254-0.184 5.359-0.184 7.654 0 3.699 0.123 5.039 0.371 6.508-1.363 0.446-4.524 1.529-6.136 1.975-2.167 0.638-5.019 1.277-8.118 1.277-7.498 0-12.145-2.042-15.43-6.38-2.726-3.507-4.028-8.866-4.028-14.671 0-8.61 3.408-15.561 9.296-19.135 3.222-1.977 6.569-2.806 11.031-2.806 5.948 0 9.852 2.424 11.277 4.019l1.301-3.636 0.62 0.319c-0.494 2.041-1.176 9.185-0.93 13.394h-0.866c-0.435-8.483-4.524-13.075-11.465-13.075-4.152 0-7.622 1.403-10.225 5.039-2.665 3.827-3.904 9.12-3.904 15.692 0 5.548 1.302 11.034 3.594 14.477 2.603 3.957 5.949 5.615 10.535 5.615 4.399 0 7.438-1.722 7.622-4.401 0.249-2.105 0.31-5.423 0.249-8.995-0.062-3.954-0.249-4.465-3.346-4.655l-2.975-0.256-0.187-0.765c1.799 0 6.198 0.19 8.801 0.19 2.477 0 5.39-0.127 6.692-0.19 0 0 0.248 0.702 0.248 0.702-3.284 0.382-3.656 0.574-3.843 2.104zm-52.536-3.071h-6.159s-1.734 4.196-1.734 4.196h-1.779l6.657-15.601 6.484 15.601h-1.778l-1.691-4.196zm-3.057-7.521s-2.473 5.959-2.473 5.959h4.901l-2.428-5.959z"/>
</svg>
