<?xml version="1.0" encoding="UTF-8" standalone="no"?>
<!-- Generator: Adobe Illustrator 18.1.0, SVG Export Plug-In . SVG Version: 6.00 Build 0)  -->
<!DOCTYPE svg  PUBLIC '-//W3C//DTD SVG 1.1//EN'  'http://www.w3.org/Graphics/SVG/1.1/DTD/svg11.dtd'>
<svg id="Layer_1" xmlns="http://www.w3.org/2000/svg" xml:space="preserve" viewBox="-240 292 238 137" version="1.1" y="0px" x="0px" xmlns:xlink="http://www.w3.org/1999/xlink" enable-background="new -240 292 238 137">
<path id="path-1" d="m-15.8 384.2c-3.6 1.7-8.2 2.6-13.7 2.6-4.1 0-8.2-0.3-12.3-0.3-3.5 0-8.6 0.3-10.1 0.3v-1l4-0.3c2.1-0.2 2.8-0.9 3-2.3 0.2-1.8 0.5-8.2 0.5-18.4v-13.2c0-8.5 0-12.6-0.2-14.8-0.1-1.5-0.7-1.9-2.3-2.1l-4.5-0.4 0.2-0.9c1.7 0 6.5 0.2 10 0.2 3.6 0 7.6-0.2 12.5-0.3 9.2 0 13.5 1.3 17 3.5 6.4 3.9 9.7 11.4 9.7 21.4 0 10.9-3.4 21-13.8 26zm1.1-43.7c-3.2-3.8-7.7-5.8-15.1-5.8-6.7 0-7 0.7-7.2 1.9s-0.4 4.7-0.4 16v12.5c0 13.2 0.1 16.6 0.3 18.5 0.2 1.3 1.5 1.9 6.3 1.9 9.1 0 13.4-2.7 16.1-6.6 2.8-4 4.9-10.6 4.9-20.3 0-8.8-2-14.7-4.9-18.1zm-72.9 47.4c-14.1 0-24.2-9.2-24.2-27.2 0-15.7 8.7-28.4 24.6-28.4h0.1c15.3 0 23.8 12 23.8 26.7 0 19.7-10.4 28.9-24.3 28.9zm11.8-47.8c-2.6-4.4-6.5-6.6-11.7-6.6h-0.1c-4.5 0-8.9 2.1-11.7 6.5-2.6 4.2-4.3 11-4.3 19.5 0 8.7 2.1 16.2 4.6 20.4 2.9 4.6 7 6.6 12 6.6 4.5 0 8.4-1.5 11.5-6.3 2.4-4 4-11.4 4-20.2 0-8-1.7-15.2-4.3-19.9zm-40.1-29.8h-10.2l-2.9 6.7h-2.9l11-25.1 10.7 25.1h-2.9l-2.8-6.7zm-5-12.1l-4.1 9.6h8.1l-4-9.6zm-31.4 89.7c-14.1 0-24.2-9.2-24.2-27.2 0-15.7 8.7-28.4 24.6-28.4h0.1c15.3 0 23.8 12 23.8 26.7 0 19.7-10.4 28.9-24.3 28.9zm11.8-47.8c-2.6-4.4-6.5-6.6-11.7-6.6h-0.1c-4.5 0-8.9 2.1-11.7 6.5-2.6 4.2-4.3 11-4.3 19.5 0 8.7 2.1 16.2 4.6 20.4 2.9 4.6 7 6.6 12 6.6 4.5 0 8.4-1.5 11.5-6.3 2.4-4 4-11.4 4-20.2 0-8-1.7-15.2-4.3-19.9zm-54.9 25.3c-0.4 4.2-0.2 6.9-0.2 9.9 0 4.8 0.2 6.5 0.5 8.4-1.8 0.6-6 2-8.2 2.6-2.9 0.8-6.7 1.6-10.8 1.6-10 0-16.2-2.6-20.5-8.2-3.6-4.5-5.4-11.5-5.4-19 0-11.1 4.5-20.1 12.4-24.7 4.3-2.6 8.7-3.6 14.7-3.6 7.9 0 13.1 3.1 15 5.2l1.7-4.7 0.8 0.4c-0.7 2.6-1.6 11.9-1.2 17.3h-1.2c-0.6-11-6-16.9-15.3-16.9-5.5 0-10.1 1.8-13.6 6.5-3.5 4.9-5.2 11.8-5.2 20.3 0 7.2 1.7 14.3 4.8 18.7 3.5 5.1 7.9 7.3 14 7.3 5.9 0 9.9-2.2 10.1-5.7 0.3-2.7 0.4-7 0.3-11.6-0.1-5.1-0.3-5.8-4.5-6l-4-0.3-0.2-1c2.4 0 8.2 0.2 11.7 0.2 3.3 0 7.2-0.2 8.9-0.2l0.3 0.9c-4.1 0.3-4.6 0.6-4.9 2.6zm42.1 41.4c1.8 1.5 2.2 3.6 2.2 5.1 0 3.4-2.1 6.7-7.6 6.7h-2.3v10.4h-2.7v-23.9h4.3c2.5 0 4.5 0.3 6.1 1.7zm-7.7 9.3h2.2c3.2 0 5.1-1.6 5.1-4.3 0-3.8-3.6-4.2-5.3-4.2h-2v8.5zm39.4 12.9h-2.9l-2.8-6.7h-10.2l-2.9 6.7h-2.9l11-25.1 10.7 25.1zm-14.9-9.3h8.1l-4-9.6-4.1 9.6zm29.5 9.3h-2.7v-23.9h2.7v23.9zm24.5-22.6c1.4 0.9 2.6 2.8 2.6 5.3 0 3.7-2.4 6.3-6 6.6l7.6 10.7h-3.2l-7.3-10.5h-0.7v10.5h-2.7v-23.9h3.8c1.7 0 4.1 0.1 5.9 1.3zm-7 9.8h1.7c3.3 0 5.3-1.6 5.3-4.4 0-1.3-0.4-2.7-1.9-3.5-1.1-0.6-2.3-0.7-3.4-0.7h-1.6v8.6z" fill="#fff"/>
</svg>
